<svg preserveAspectRatio="none" overflow="visible" style="display: block;" width="290" height="419" viewBox="0 0 290 419" fill="none" xmlns="http://www.w3.org/2000/svg">
<path id="Vector" d="M130.23 413.423L282.982 280.344C286.89 276.937 289.153 271.991 289.19 266.777L290 150.038C290.031 145.316 288.233 140.765 284.992 137.368L159.827 6.11612C156.479 2.60154 151.863 0.60923 147.035 0.577182L47.1464 0.000320034C37.2685 -0.0584344 29.2097 7.98024 29.141 17.9578C29.1092 22.6528 30.886 27.1769 34.0905 30.5686L185.045 190.306C188.35 193.804 190.132 198.489 189.989 203.323L189.804 209.652C189.661 214.566 187.546 219.208 183.945 222.509L5.90055 385.819C-5.99728 396.732 1.25775 416.735 17.3172 417.28C52.1117 418.46 96.8 418.871 115.239 418.999C120.744 419.037 126.069 417.055 130.235 413.428L130.23 413.423Z" fill="url(#paint0_linear_0_4)"/>
<defs>
<linearGradient id="paint0_linear_0_4" x1="4.93938e-08" y1="209.5" x2="290" y2="209.5" gradientUnits="userSpaceOnUse">
<stop stop-color="#00ACFD"/>
<stop offset="1" stop-color="#2F499E"/>
</linearGradient>
</defs>
</svg>
